<svg width="173" height="173" viewBox="0 0 173 173" fill="none" xmlns="http://www.w3.org/2000/svg">
<path d="M172.008 86.6365C172.008 133.79 133.808 172.015 86.6852 172.015C39.5627 172.015 1.36182 133.79 1.36182 86.6365C1.36182 39.4828 39.5627 1.25781 86.6852 1.25781C133.808 1.25781 172.008 39.4828 172.008 86.6365Z" fill="black" stroke="#EFEFEF"/>
<path d="M158.917 86.2713C158.917 126.391 126.414 158.914 86.3214 158.914C46.2284 158.914 13.7261 126.391 13.7261 86.2713C13.7261 46.1517 46.2284 13.6289 86.3214 13.6289C126.414 13.6289 158.917 46.1517 158.917 86.2713Z" fill="#453F52" stroke="#EFEFEF"/>
<path d="M148.462 86.6376C148.462 98.8642 144.838 110.816 138.05 120.982C131.262 131.148 121.614 139.071 110.326 143.75C99.0377 148.428 86.6167 149.652 74.6334 147.267C62.6501 144.882 51.6426 138.995 43.003 130.349C34.3633 121.704 28.4795 110.689 26.0957 98.6978C23.712 86.7062 24.9354 74.2766 29.6113 62.9809C34.2871 51.6851 42.2053 42.0306 52.3644 35.2382C62.5235 28.4457 74.4672 24.8203 86.6852 24.8203" stroke="#EFEFEF" stroke-width="3"/>
<path d="M121.824 86.2715C121.824 105.892 105.928 121.797 86.3215 121.797C66.7145 121.797 50.8193 105.892 50.8193 86.2715C50.8193 66.651 66.7145 50.7461 86.3215 50.7461C105.928 50.7461 121.824 66.651 121.824 86.2715Z" fill="black" stroke="#EFEFEF"/>
<path d="M111.641 86.6366C111.641 100.429 100.468 111.609 86.6851 111.609C72.9025 111.609 61.729 100.429 61.729 86.6366C61.729 72.8443 72.9025 61.6641 86.6851 61.6641C100.468 61.6641 111.641 72.8443 111.641 86.6366Z" fill="white" stroke="#EFEFEF"/>
<path d="M91.2762 86.6375C91.2762 89.1752 89.2203 91.232 86.685 91.232C84.1496 91.232 82.0938 89.1752 82.0938 86.6375C82.0938 84.0997 84.1496 82.043 86.685 82.043C89.2203 82.043 91.2762 84.0997 91.2762 86.6375Z" fill="#453F52" stroke="#EFEFEF"/>
</svg>
