<svg width="172" height="173" viewBox="0 0 172 173" fill="none" xmlns="http://www.w3.org/2000/svg">
<path d="M171.5 86.6365C171.5 133.79 133.299 172.015 86.1764 172.015C39.0539 172.015 0.853027 133.79 0.853027 86.6365C0.853027 39.4828 39.0539 1.25781 86.1764 1.25781C133.299 1.25781 171.5 39.4828 171.5 86.6365Z" fill="black" stroke="#EFEFEF"/>
<path d="M158.408 86.2713C158.408 126.391 125.906 158.914 85.8126 158.914C45.7196 158.914 13.2173 126.391 13.2173 86.2713C13.2173 46.1517 45.7196 13.6289 85.8126 13.6289C125.906 13.6289 158.408 46.1517 158.408 86.2713Z" fill="#AFADF9" stroke="#EFEFEF"/>
<path d="M147.953 86.6376C147.953 98.8642 144.33 110.816 137.541 120.982C130.753 131.148 121.105 139.071 109.817 143.75C98.5289 148.428 86.1079 149.652 74.1246 147.267C62.1413 144.882 51.1338 138.995 42.4942 130.349C33.8545 121.704 27.9707 110.689 25.587 98.6978C23.2032 86.7062 24.4266 74.2766 29.1025 62.9809C33.7783 51.6851 41.6965 42.0306 51.8556 35.2382C62.0147 28.4457 73.9584 24.8203 86.1764 24.8203" stroke="#EFEFEF" stroke-width="3"/>
<path d="M121.315 86.2715C121.315 105.892 105.42 121.797 85.8127 121.797C66.2057 121.797 50.3105 105.892 50.3105 86.2715C50.3105 66.651 66.2057 50.7461 85.8127 50.7461C105.42 50.7461 121.315 66.651 121.315 86.2715Z" fill="black" stroke="#EFEFEF"/>
<path d="M111.132 86.6366C111.132 100.429 99.9588 111.609 86.1763 111.609C72.3937 111.609 61.2202 100.429 61.2202 86.6366C61.2202 72.8443 72.3937 61.6641 86.1763 61.6641C99.9588 61.6641 111.132 72.8443 111.132 86.6366Z" fill="white" stroke="#EFEFEF"/>
<path d="M90.7676 86.6375C90.7676 89.1752 88.7118 91.232 86.1764 91.232C83.6411 91.232 81.5852 89.1752 81.5852 86.6375C81.5852 84.0997 83.6411 82.043 86.1764 82.043C88.7118 82.043 90.7676 84.0997 90.7676 86.6375Z" fill="#453F52" stroke="#EFEFEF"/>
</svg>
